<?xml version="1.0" encoding="UTF-8"?>
<svg id="_x32_" xmlns="http://www.w3.org/2000/svg" version="1.1" viewBox="0 0 800 800">
  <!-- Generator: Adobe Illustrator 30.0.0, SVG Export Plug-In . SVG Version: 2.1.1 Build 123)  -->
  <defs>
    <style>
      .st0 {
        fill: #7a94b8;
      }
    </style>
  </defs>
  <path class="st0" d="M663.81,459.98h0Z"/>
  <path class="st0" d="M800,370.78c-.01-22.39-1.73-43.93-7.19-63.13-2.73-9.59-6.41-18.62-11.38-26.78-4.95-8.17-11.2-15.47-18.91-21.46l-.08-.06h0c-14.69-11.19-28.3-18.59-42.64-23.02-14.34-4.43-29.14-5.87-46.16-5.87-19.26,0-41.54,1.8-70.32,3.48-25.71,1.52-60.54,1.78-92.39,1.78-16.96,0-33.08-.07-46.61-.07-18.64.01-49.42-2.73-80.79-7.11-31.35-4.35-63.54-10.37-85.16-16.64-20.04-5.8-37.83-13.25-53.2-19.41-7.69-3.08-14.8-5.84-21.4-7.9-2.44-.74-4.78-1.37-7.1-1.91,3.2-7.59,4.39-15.12,4.39-21.47,0-3.58-.35-6.8-1.04-9.7-.35-1.45-.78-2.82-1.39-4.2-.63-1.38-1.37-2.79-2.9-4.36h0c-2.27-2.21-4.77-3.45-7.45-4.35-2.7-.87-5.64-1.31-8.81-1.31-5.98,0-12.82,1.67-19.81,5.45-1.31-8.05-4.25-15.7-7.75-22.36-2.4-4.51-5.07-8.55-7.9-11.98-2.87-3.41-5.74-6.24-9.42-8.32-4.4-2.44-8.93-3.79-13.49-3.8-3.87,0-7.94,1.02-11.36,3.8-1.67,1.38-3.12,3.2-4.07,5.28-.95,2.06-1.39,4.32-1.38,6.51,0,2.65.6,5.18,1.59,7.57,1.41,3.39,2.77,7.61,3.73,11.86.98,4.25,1.55,8.57,1.55,12.01,0,2.21-.24,4.05-.57,5.2-.14.47-.28.79-.38,1.02-2.86,1.74-10.05,6.16-17.83,10.98-5.02,3.09-10.25,6.34-14.7,9.11-4.44,2.79-8.04,5.06-10.02,6.37-1.25.85-2.02,1.59-2.95,2.45-1.69,1.6-3.57,3.62-5.8,6.1-7.7,8.61-19.24,22.63-29.75,35.03-5.24,6.19-10.21,11.95-14.18,16.3-1.98,2.16-3.72,3.99-5.04,5.27-.65.63-1.2,1.13-1.56,1.43l-.36.28c-4.03,2.3-9.99,5.59-15.27,9.08-2.67,1.8-5.18,3.62-7.43,5.77-1.13,1.1-2.2,2.27-3.22,3.85-.5.79-.99,1.7-1.38,2.8-.41,1.12-.7,2.45-.7,3.99.03,1.67.25,2.52.47,3.45.43,1.66.99,3.25,1.73,5.1,2.56,6.35,7.13,15.42,12.39,23.53,2.65,4.04,5.41,7.8,8.49,10.95,1.56,1.57,3.2,3.02,5.21,4.26,1.99,1.21,4.5,2.37,7.89,2.41.56-.01,2.73.11,5.61.35,10.27.85,30.92,3.08,53.91,5.46,21.3,2.21,44.62,4.57,64.04,6.14,3.12,5.24,9,15.38,15.65,28.01,8.7,16.5,18.67,37.25,25.32,56.38,1.84,5.3,3.83,12.44,5.88,20.38,3.11,11.93,6.37,25.67,9.91,38.35,1.77,6.35,3.61,12.44,5.56,17.97,1.95,5.54,4,10.52,6.38,14.8,11.3,20.22,22.67,38.78,31.03,54.58,4.17,7.89,7.59,15.09,9.88,21.32,2.31,6.2,3.43,11.41,3.4,15.06v66.99l-8.18,27.73,5.85,3.65c1.06.68,12.18,7.29,31.91,7.29,5.52,0,10.41-1.03,14.53-3.02,3.08-1.49,5.69-3.51,7.71-5.75,3.02-3.39,4.72-7.13,5.67-10.48.95-3.36,1.2-6.34,1.2-8.68v-89.26l-.21-.93-.04-.22c-.24-1.16-1.37-6.79-2.44-13.65-1.07-6.84-2.03-15.03-2.02-20.76-.01-.82.21-3.37.71-6.56,1.66-11.09,5.98-30.95,10.07-49.3,6.63,1.9,15.79,4.46,25.87,7.12,10.02,2.63,20.93,5.37,31.2,7.64,10.3,2.27,19.84,4.08,27.55,4.85,38.4,3.85,67.87,7.72,115.31,7.72,10.45,0,21.78-.2,34.26-.6,36.91-1.22,64.23-9.8,82.4-18.21,7.72-3.58,13.68-7.08,18.15-10.02,7.12,18.52,16.98,32.95,26.31,43.58,7.08,8.1,13.85,14.12,18.73,18.25,1.73,1.45,3.2,2.68,4.33,3.62-.07.99-.15,2.08-.24,3.37-.88,12.32-2.84,37.86-4.58,60.31-.87,11.22-1.67,21.67-2.27,29.32-.39,5.07-.7,8.86-.85,10.87l-13.82,30.22,6.31,4.33c1.17.82,11.63,7.44,31.35,7.43,5.31,0,10.14-.8,14.45-2.49,3.23-1.27,6.13-3.05,8.57-5.25,3.65-3.32,6.13-7.47,7.59-11.75,1.48-4.29,2.02-8.74,2.02-13.14-.01-.08.06-1.03.21-2.29.6-4.9,2.45-14.87,4.88-26.79,3.61-17.95,8.5-40.66,12.48-60.08,1.99-9.71,3.76-18.6,5.04-25.75.64-3.57,1.17-6.7,1.55-9.34.36-2.68.61-4.68.63-6.77,0-.7-.01-1.39-.2-2.47-1.56-8.82-2.23-19.24-2.22-30.75-.01-19.41,1.82-41.84,3.71-65.17,1.87-23.34,3.76-47.58,3.76-70.88ZM771.69,569.53c-3.62,18.03-8.5,40.74-12.48,60.1-1.99,9.68-3.76,18.52-5.04,25.58-.64,3.54-1.17,6.63-1.55,9.21-.36,2.63-.61,4.57-.63,6.65,0,2.55-.31,4.79-.84,6.58-.84,2.7-1.91,4.25-3.65,5.5-1.74,1.21-4.68,2.37-9.98,2.38-5.98-.01-10.6-.75-14-1.63l8.02-17.54.12-1.62s2.08-26.5,4.17-53.46c1.03-13.47,2.08-27.07,2.86-37.52.37-5.23.71-9.66.93-12.92.12-1.63.21-2.97.28-3.97.03-.52.04-.93.07-1.3.01-.37.03-.6.04-1.1-.01-1.37-.29-2.41-.56-3.2-.57-1.55-1.16-2.3-1.62-2.93-.91-1.17-1.57-1.78-2.31-2.48-1.37-1.24-2.91-2.49-4.79-4.07-6.51-5.45-16.94-14.43-26.71-28.16-9.74-13.72-18.76-32.01-22.22-56.21l-17.99,2.56c.71,4.97,1.67,9.67,2.77,14.24-9.17,6.83-39.88,26.36-95.49,28.23-12.3.4-23.42.58-33.66.58-46.41,0-74.71-3.73-113.5-7.62-6.38-.63-15.53-2.31-25.43-4.5-14.88-3.29-31.55-7.68-44.43-11.24-4.82-1.34-9.11-2.55-12.6-3.54.77-3.41,1.49-6.68,2.12-9.6.79-3.64,1.46-6.83,1.99-9.46.53-2.68.89-4.65,1.09-6.41l-18.06-2.01c-.07.67-.47,3-1.07,5.96-2.15,10.6-6.86,30.92-11.02,50.05-2.09,9.58-4.05,18.89-5.5,26.68-.73,3.9-1.33,7.43-1.76,10.46-.43,3.07-.71,5.56-.73,7.94.01,8.02,1.27,17.37,2.48,25,.93,5.82,1.84,10.51,2.23,12.43v87.41c0,.88-.1,2.1-.38,3.29-.22.88-.53,1.71-.92,2.44-.63,1.07-1.3,1.85-2.55,2.58-1.27.71-3.34,1.45-7.08,1.45-7.01,0-12.3-1.04-16.04-2.13l4.63-15.73v-69.61c-.01-6.95-1.8-13.95-4.51-21.36-4.11-11.09-10.48-23.16-17.9-36.31-7.41-13.12-15.88-27.28-24.19-42.15-2.13-3.78-4.56-9.95-6.86-17.18-3.5-10.9-6.86-24.26-10.07-37.08-3.23-12.86-6.3-25.09-9.5-34.35-7.63-21.93-18.84-44.74-28.17-62.21-9.32-17.47-16.78-29.55-16.85-29.66l-2.43-3.93-4.61-.36c-22.77-1.74-52.61-4.84-77.92-7.47-12.65-1.34-24.18-2.55-33.17-3.44-4.49-.43-8.35-.79-11.44-1.06-2.43-.2-4.26-.33-5.83-.38-.33-.25-.8-.63-1.42-1.28-1.67-1.67-3.87-4.53-6.01-7.8-3.23-4.92-6.42-10.81-8.71-15.63-.99-2.08-1.77-3.89-2.34-5.34.43-.36.91-.74,1.45-1.13,2.18-1.62,5.14-3.48,8.14-5.25,2.99-1.77,6.05-3.47,8.58-4.92,1.44-.84,2.37-1.62,3.41-2.52,1.9-1.66,3.92-3.72,6.27-6.23,8.11-8.69,19.77-22.74,30.22-35.2,5.21-6.2,10.12-11.98,13.99-16.39,1.94-2.19,3.62-4.04,4.89-5.35.64-.65,1.17-1.18,1.53-1.5l.38-.33h0c1.62-1.07,5.16-3.32,9.45-6,6.6-4.12,15.04-9.34,21.82-13.5,6.79-4.18,11.88-7.32,11.9-7.32l.82-.5.71-.67c2.94-2.83,4.57-6.26,5.52-9.59.93-3.34,1.25-6.72,1.25-10.14,0-5.32-.8-10.77-1.99-16.05-1-4.35-2.31-8.46-3.76-12.26.67.22,1.38.52,2.19.98.5.24,2.37,1.72,4.23,4.03,2.88,3.47,6.09,8.71,8.42,14.38,2.35,5.68,3.82,11.82,3.8,17,0,3.02-.46,5.7-1.35,7.97l8.44,3.33,6.83,6.01c9.52-10.77,18.28-13.18,23.33-13.2,1.27-.01,2.23.17,2.9.35.06.26.13.56.18.88.21,1.18.35,2.75.35,4.5.01,5.21-1.27,12.1-4.82,18.23-3.6,6.17-9.18,11.82-19.09,15.63l6.45,16.98c8.26-3.11,14.9-7.59,20.05-12.74,3.09.08,7.51.95,12.89,2.63,8.6,2.66,19.45,7.2,32.05,12.23,12.6,5.03,26.96,10.56,42.92,15.17,23.13,6.69,55.74,12.72,87.71,17.18,31.98,4.45,63.05,7.28,83.28,7.28,13.46,0,29.6.08,46.61.08,31.98,0,66.98-.26,93.45-1.82,28.98-1.7,51.15-3.47,69.26-3.46,16.07,0,28.8,1.35,40.78,5.06,11.97,3.72,23.45,9.82,36.95,20.08,5.82,4.53,10.58,10.03,14.53,16.53,5.92,9.74,9.96,21.75,12.46,35.43,2.51,13.68,3.47,28.97,3.47,45.05,0,22.31-1.85,46.12-3.71,69.42-1.87,23.31-3.76,46.11-3.77,66.63.01,11.95.65,23.14,2.43,33.34-.01.28-.07,1.14-.21,2.3-.61,5.01-2.46,15.07-4.87,27.06Z"/>
</svg>