<?xml version="1.0" encoding="UTF-8"?>
<svg id="a" xmlns="http://www.w3.org/2000/svg" version="1.1" viewBox="0 0 800 800">
  <!-- Generator: Adobe Illustrator 30.0.0, SVG Export Plug-In . SVG Version: 2.1.1 Build 123)  -->
  <defs>
    <style>
      .st0 {
        fill: none;
        stroke: #7a94b8;
        stroke-linecap: round;
        stroke-linejoin: round;
        stroke-width: 16.67px;
      }
    </style>
  </defs>
  <path class="st0" d="M435.38,725c9.4-254.24-92.96-339.97-173.76-393.18,19.71-96.57,90.46-148.75,90.46-148.75"/>
  <path class="st0" d="M418.3,172.19s-32.89,53.21-62.45,54.32c0,0-9.61-97.19-5.91-116.77,24.02-28.08,75.75-34.73,105.31-34.73s53.21,19.95,57.28,63.56c28.08.37,54.69,13.3,60.23,25.5-1.85,31.04-26.97,46.93-51.36,56.17s-44.34,24.39-44.34,39.17,6.65,70.58,48.04,78.34c41.39,7.76,106.79,28.08,106.79,94.97s-22.54,55.8-22.54,121.33,6.9,50.75,6.9,84.25-10.84,63.07-21.68,82.77"/>
  <path class="st0" d="M538.89,715.15s12.32-57.15,12.32-84.25-23.03-62.32-47.3-92.88c-20.94-26.36-75.56-3.4-73.57,65.06"/>
  <path class="st0" d="M602.06,369.03c55.08,5.66,93.51-42.63,60.99-100.77"/>
  <path class="st0" d="M261.62,331.82c3.45,15.27,6.28,45.82,6.28,45.82-18.86,0-35.98,15.96-46.7,22.99-21.87,14.33-44.76,19.14-43.96,45.01,7.88,20.69,43.23,23.03,68.85,22.54l-.56,14.41c-25.52,24.39-73.72,79.09-73.72,146.33,0,78.34,57.28,92.13,89.79,92.13s194.67-81.97,141.48-225.16"/>
  <path class="st0" d="M128.46,502.3c15.27,1.48,32.03,3.94,32.03,28.08s-35.47,46.81-35.47,103.47,38.06,87.21,136.6,87.21"/>
  <path class="st0" d="M614.71,617.51c-9.31-36.38-51.68-76.29-63.51-82.2s-12.51,53.93-3.92,74.14"/>
</svg>